<?xml version="1.0" standalone="no"?><svg xmlns="http://www.w3.org/2000/svg" viewBox="0 0 969 320"> <!-- hay que calcular el tamaño para que la imagen se repita justo en este caso 969 -->
<path fill="#008000" fill-opacity="1" d="M0,192L48,176C96,160,192,128,288,133.3C384,139,480,181,576,208C672,235,768,245,864,224C960,203,1056,149,1152,144C1248,139,1344,181,1392,202.7L1440,224L1440,0L1392,0C1344,0,1248,0,1152,0C1056,0,960,0,864,0C768,0,672,0,576,0C480,0,384,0,288,0C192,0,96,0,48,0L0,0Z"></path></svg>

